<svg xmlns="http://www.w3.org/2000/svg" xmlns:xlink="http://www.w3.org/1999/xlink" preserveAspectRatio="xMidYMid" width="45" height="37" viewBox="0 0 45 37">
  <defs>
    <style>
      .cls-1 {
        fill: #929292;
        fill-rule: evenodd;
      }
    </style>
  </defs>
  <path d="M38.986,22.206 L35.994,22.206 L35.994,19.241 L38.986,19.241 L38.986,22.206 ZM35.994,13.312 L38.986,13.312 L38.986,16.276 L35.994,16.276 L35.994,13.312 ZM0.000,37.000 L0.000,1.482 L9.006,1.482 L9.006,4.447 L2.992,4.447 L2.992,34.035 L42.008,34.035 L42.008,4.447 L35.994,4.447 L35.994,1.482 L45.000,1.482 L45.000,37.000 L0.000,37.000 ZM30.010,25.171 L33.002,25.171 L33.002,28.106 L30.010,28.106 L30.010,25.171 ZM30.010,19.241 L33.002,19.241 L33.002,22.206 L30.010,22.206 L30.010,19.241 ZM30.010,13.312 L33.002,13.312 L33.002,16.276 L30.010,16.276 L30.010,13.312 ZM30.010,-0.000 L33.002,-0.000 L33.002,5.929 L30.010,5.929 L30.010,-0.000 ZM23.996,25.171 L26.988,25.171 L26.988,28.106 L23.996,28.106 L23.996,25.171 ZM23.996,19.241 L26.988,19.241 L26.988,22.206 L23.996,22.206 L23.996,19.241 ZM23.996,13.312 L26.988,13.312 L26.988,16.276 L23.996,16.276 L23.996,13.312 ZM18.012,13.312 L21.004,13.312 L21.004,16.276 L18.012,16.276 L18.012,13.312 ZM21.004,28.106 L18.012,28.106 L18.012,25.171 L21.004,25.171 L21.004,28.106 ZM18.012,19.241 L21.004,19.241 L21.004,22.206 L18.012,22.206 L18.012,19.241 ZM18.012,1.482 L26.988,1.482 L26.988,4.447 L18.012,4.447 L18.012,1.482 ZM11.998,25.171 L14.990,25.171 L14.990,28.106 L11.998,28.106 L11.998,25.171 ZM11.998,19.241 L14.990,19.241 L14.990,22.206 L11.998,22.206 L11.998,19.241 ZM11.998,-0.000 L14.990,-0.000 L14.990,5.929 L11.998,5.929 L11.998,-0.000 ZM6.014,25.171 L9.006,25.171 L9.006,28.106 L6.014,28.106 L6.014,25.171 ZM6.014,19.241 L9.006,19.241 L9.006,22.206 L6.014,22.206 L6.014,19.241 Z" class="cls-1"/>
</svg>
