<?xml version="1.0" encoding="utf-8"?>
<!-- by devin + crystal -->
<!DOCTYPE svg PUBLIC "-//W3C//DTD SVG 1.1//EN" "http://www.w3.org/Graphics/SVG/1.1/DTD/svg11.dtd">
<svg version="1.1" id="Layer_1" xmlns="http://www.w3.org/2000/svg" xmlns:xlink="http://www.w3.org/1999/xlink" x="0px" y="0px" width="51.5px" height="80.1px" viewBox="0 0 51.5 80.1" enable-background="new 0 0 51.5 80.1" xml:space="preserve">
	<style>
		.body {
			animation: 3s hover infinite;
			animation-timing-function: linear;
		}
		.shadow {
			animation: 3s fade infinite;
			animation-timing-function: linear;
			transform-origin: center center;
			transform: scale(.8);
			opacity: .8;
		}
		@keyframes hover {
			0% {transform: translateY(0)}
			20% {transform: translateY(-5px)}
			25% {transform: translateY(-6px)}
			28% {transform: translateY(-5px)}
			35% {transform: translateY(-4px)}
			50% {transform: translateY(0)}
			70% {transform: translateY(5px)}
			75% {transform: translateY(6px)}
			78% {transform: translateY(5px)}
			85% {transform: translateY(4px)}
		}
		@keyframes fade {
			0% {transform: scale(.8); opacity: .8;}
			25% {transform: scale(.65); opacity: .65;}
			50% {transform: scale(.8); opacity: .8;}
			75% {transform: scale(1.05); opacity: 1;}

		}
	</style>
	<ellipse class="shadow" fill="#878787" cx="24.4" cy="73.2" rx="22.2" ry="6.9" />
	<g class="body">
		<path fill="#FFFFFF" d="M0,55.1c0,0-0.6-19.6,5.3-34.2c4.1-10.1,26.3-16.2,38.1-8.4c14.3,9.4,5.5,38.7,4.4,42 c-0.6,1.8-2.2,3.4-5.2,3.7c-1.6,0.2-3.6,0-5.8-0.9c-8.1-3.3-9.6,2.7-15.4,0.7c-7.5-2.5-10,0.6-12.5,1.5C5,60.7,0,57.9,0,55.1" />
		<g>
			<path fill="#821715" d="M13.2,30.5c0,3,1.6,5.3,3.6,5.3c2,0,3.6-2.4,3.6-5.3c0-2.9-1.6-5.3-3.6-5.3C14.8,25.1,13.2,27.5,13.2,30.5z" />
			<g>
				<path fill="#efabc5" d="M23.2,38.4c-0.2-0.2-0.2-0.6,0-0.8c0.2-0.2,0.5-0.2,0.6,0c1.1,1.6,2.7,2.5,4.3,2.5c1.6,0,3.2-0.9,4.3-2.4 c0.2-0.2,0.5-0.3,0.6,0c0.2,0.2,0.2,0.6,0,0.8c-1.3,1.8-3.1,2.8-5,2.8C26.3,41.3,24.5,40.2,23.2,38.4z" />
			</g>
			<path fill="#821715" d="M37.3,30.5c0,3,1.6,5.3,3.6,5.3c2,0,3.6-2.4,3.6-5.3c0-2.9-1.6-5.3-3.6-5.3C38.9,25.1,37.3,27.5,37.3,30.5z" />
		</g>
	</g>
</svg>
