<svg xmlns="http://www.w3.org/2000/svg" xmlns:xlink="http://www.w3.org/1999/xlink" preserveAspectRatio="xMidYMid" width="31" height="31" viewBox="0 0 31 31">
  <defs>
    <style>
      .cls-1 {
        fill: #fff;
        fill-rule: evenodd;
      }
    </style>
  </defs>
  <path d="M15.500,31.000 C6.940,31.000 -0.000,24.060 -0.000,15.500 C-0.000,6.940 6.940,-0.000 15.500,-0.000 C24.060,-0.000 31.000,6.940 31.000,15.500 C31.000,24.060 24.060,31.000 15.500,31.000 ZM28.781,15.500 C28.781,12.633 27.868,9.982 26.322,7.812 L23.125,11.009 C23.907,12.328 24.375,13.855 24.375,15.500 C24.375,17.145 23.907,18.672 23.125,19.991 L26.322,23.188 C27.868,21.018 28.781,18.367 28.781,15.500 ZM15.500,8.844 C11.824,8.844 8.844,11.824 8.844,15.500 C8.844,19.176 11.824,22.156 15.500,22.156 C19.176,22.156 22.156,19.176 22.156,15.500 C22.156,11.824 19.176,8.844 15.500,8.844 ZM15.500,28.781 C18.367,28.781 21.018,27.868 23.188,26.322 L19.991,23.125 C18.672,23.907 17.145,24.375 15.500,24.375 C13.855,24.375 12.328,23.907 11.009,23.125 L7.812,26.322 C9.982,27.868 12.633,28.781 15.500,28.781 ZM2.219,15.500 C2.219,18.367 3.132,21.018 4.678,23.188 L7.875,19.991 C7.093,18.672 6.625,17.145 6.625,15.500 C6.625,13.855 7.093,12.328 7.874,11.009 L4.678,7.812 C3.132,9.982 2.219,12.633 2.219,15.500 ZM7.812,4.678 L11.009,7.875 C12.328,7.093 13.855,6.625 15.500,6.625 C17.145,6.625 18.672,7.093 19.991,7.875 L23.188,4.678 C21.018,3.132 18.367,2.219 15.500,2.219 C12.633,2.219 9.982,3.132 7.812,4.678 Z" class="cls-1"/>
</svg>
