<svg xmlns="http://www.w3.org/2000/svg" xmlns:xlink="http://www.w3.org/1999/xlink" preserveAspectRatio="xMidYMid" width="28" height="28" viewBox="0 0 28 28">
  <defs>
    <style>
      .cls-1 {
        fill: #f9fcfa;
        fill-rule: evenodd;
      }
    </style>
  </defs>
  <path d="M-0.000,28.000 L-0.000,26.007 C-0.000,21.906 2.557,16.330 6.604,14.987 L6.850,14.905 L6.973,15.127 C7.227,15.586 7.533,16.032 7.881,16.453 L8.167,16.798 L7.727,16.918 C4.495,17.809 2.203,22.824 2.069,26.007 L25.931,26.007 C25.797,22.824 23.211,17.809 19.979,16.918 L19.539,16.798 L19.825,16.453 C20.173,16.032 20.479,15.586 20.733,15.127 L20.855,14.905 L21.102,14.987 C25.149,16.330 28.000,21.906 28.000,26.007 L28.000,28.000 L-0.000,28.000 ZM14.000,18.000 C9.847,18.000 7.000,14.991 7.000,11.000 L7.000,7.000 C7.000,3.009 9.847,0.000 14.000,0.000 C18.154,0.000 21.000,3.009 21.000,7.000 L21.000,11.000 C21.000,14.991 18.154,18.000 14.000,18.000 ZM19.000,7.000 C19.000,4.190 16.925,2.000 14.000,2.000 C11.076,2.000 9.000,4.190 9.000,7.000 L9.000,11.000 C9.000,13.810 11.076,16.000 14.000,16.000 C16.925,16.000 19.000,13.810 19.000,11.000 L19.000,7.000 Z" class="cls-1"/>
</svg>
